<?xml version="1.0" standalone="no"?>
<!DOCTYPE svg PUBLIC "-//W3C//DTD SVG 20010904//EN"
 "http://www.w3.org/TR/2001/REC-SVG-20010904/DTD/svg10.dtd">
<svg version="1.0" xmlns="http://www.w3.org/2000/svg"
 width="218.000000pt" height="218.000000pt" viewBox="0 0 218.000000 218.000000"
 preserveAspectRatio="xMidYMid meet">
<metadata>
Created by potrace 1.14, written by Peter Selinger 2001-2017
</metadata>
<g transform="translate(0.000000,218.000000) scale(0.100000,-0.100000)"
fill="#000000" stroke="none">
<path d="M730 1850 c0 -5 7 -10 16 -10 8 0 22 -6 29 -12 8 -7 32 -26 54 -43
43 -32 75 -85 61 -99 -4 -4 -29 -4 -54 2 -25 5 -48 7 -51 4 -2 -3 -23 -6 -45
-8 -73 -6 -78 -32 -5 -29 19 1 35 -2 35 -6 0 -5 3 -8 8 -8 30 5 73 -33 106
-95 30 -57 35 -106 9 -106 -9 0 -13 3 -10 6 3 4 -13 20 -36 37 -23 17 -44 33
-47 36 -17 20 -83 63 -100 64 -11 1 -20 5 -20 10 0 10 -89 6 -96 -5 -3 -4 -16
-8 -29 -8 -52 0 -211 -138 -261 -226 -6 -10 -17 -30 -25 -44 -8 -14 -18 -28
-24 -32 -5 -4 -6 -8 -2 -8 5 0 -1 -13 -13 -30 -12 -16 -18 -30 -14 -30 3 0 2
-6 -3 -12 -11 -14 -51 -125 -57 -161 -3 -12 -6 -24 -7 -27 -1 -3 -3 -9 -4 -15
-1 -5 -5 -25 -9 -44 -12 -50 -14 -223 -4 -278 5 -27 9 -57 9 -68 0 -26 49
-134 74 -163 36 -43 81 -63 129 -61 26 2 46 6 46 10 0 4 10 9 23 11 20 3 22 8
23 73 1 38 -2 80 -7 92 -5 13 -5 23 -1 23 5 0 9 15 9 33 3 132 7 136 29 27 9
-40 20 -84 26 -98 6 -15 12 -29 12 -32 1 -3 7 -14 13 -25 11 -19 13 -19 45 11
108 101 200 174 217 174 6 0 11 5 11 10 0 6 9 10 20 10 11 0 20 5 20 10 0 6
10 10 23 10 13 0 27 3 31 7 3 4 17 8 29 10 12 2 38 8 57 13 82 21 125 25 190
15 66 -10 81 -13 118 -24 17 -5 32 -8 32 -6 0 9 139 -65 167 -89 17 -14 33
-26 36 -26 3 0 19 -13 37 -30 45 -42 65 -39 79 13 6 23 13 56 15 72 2 17 5 35
6 40 1 6 6 -1 11 -15 6 -14 10 -68 10 -120 0 -60 4 -101 12 -110 12 -16 85
-64 100 -66 4 -1 9 -3 12 -4 3 -1 9 -3 14 -4 5 0 13 -4 17 -9 25 -25 126 8
162 52 23 29 61 108 55 115 -4 3 -2 6 4 6 5 0 10 6 10 13 0 6 4 30 9 52 10 48
11 276 2 325 -20 100 -36 155 -60 210 -40 89 -83 172 -95 182 -7 6 -13 16 -13
23 0 6 -35 48 -77 92 -114 116 -215 160 -309 132 -24 -8 -44 -17 -44 -21 0 -4
-4 -8 -10 -8 -9 0 -31 -16 -64 -45 -6 -6 -24 -20 -41 -32 -36 -25 -33 -27
-105 90 -29 48 -57 87 -62 87 -5 0 -7 4 -4 9 6 9 -76 86 -92 86 -4 0 -13 4
-19 8 -7 5 -13 5 -13 1 0 -3 -6 -1 -13 5 -8 6 -32 12 -54 15 -37 3 -156 49
-177 68 -14 11 -86 10 -86 -2z m887 -535 c73 -48 42 -175 -44 -180 -59 -3
-121 42 -117 85 1 8 2 24 3 36 1 23 26 55 56 71 24 14 71 8 102 -12z m-921
-20 c4 -14 6 -43 6 -63 0 -53 7 -84 18 -77 6 3 10 1 10 -6 0 -7 4 -8 13 -2 10
7 60 9 110 4 4 -1 7 -36 7 -78 l0 -78 -80 1 -79 1 0 -56 c1 -112 9 -102 -77
-99 l-76 3 0 78 0 77 -81 0 -82 0 3 75 c2 48 8 75 15 76 68 4 97 3 97 -6 0 -5
4 -4 9 3 4 7 14 12 21 10 16 -3 17 0 19 88 l1 66 60 -4 c33 -1 60 0 60 5 0 18
20 4 26 -18z m737 -130 c15 -4 27 -11 27 -17 0 -5 4 -7 10 -3 13 8 34 -68 26
-98 -3 -14 -13 -32 -21 -40 -8 -8 -12 -17 -9 -19 2 -3 -18 -10 -46 -15 -27 -6
-50 -7 -50 -3 0 4 -9 10 -19 13 -26 7 -59 61 -55 93 3 34 32 75 55 81 10 3 19
9 19 14 0 9 15 8 63 -6z m335 1 c55 -28 69 -95 32 -149 -25 -36 -36 -41 -95
-38 -40 1 -85 51 -85 92 0 82 77 132 148 95z m-149 -172 c45 -26 60 -107 26
-141 -8 -8 -15 -18 -15 -22 0 -4 -10 -8 -22 -8 -13 -1 -24 -7 -26 -12 -3 -10
-34 -2 -79 21 -26 13 -47 69 -39 102 6 26 45 72 66 78 24 8 57 1 89 -18z"/>
<path d="M1060 694 c0 -5 -17 -10 -38 -11 -47 -3 -122 -25 -122 -35 0 -4 -7
-8 -16 -8 -9 0 -28 -8 -42 -18 -15 -10 -39 -24 -54 -32 -16 -7 -28 -17 -28
-22 0 -4 -5 -8 -11 -8 -5 0 -24 -13 -42 -30 -25 -23 -28 -30 -14 -30 9 0 17 5
17 10 0 6 9 10 21 10 11 0 17 5 14 10 -3 6 1 10 9 10 9 0 30 9 48 20 18 11 41
20 51 20 9 0 17 5 17 10 0 6 9 10 21 10 11 0 28 4 37 9 9 5 44 12 77 15 33 4
69 8 80 9 11 2 34 0 52 -4 20 -4 34 -3 37 5 3 7 5 7 5 -1 1 -7 13 -13 28 -13
23 0 51 -7 113 -28 8 -3 24 -7 35 -9 10 -2 22 -7 25 -11 3 -4 19 -14 35 -22
17 -8 49 -27 72 -42 23 -15 45 -28 49 -28 13 0 -87 89 -107 95 -11 4 -17 10
-15 14 3 4 -10 14 -29 21 -19 8 -35 16 -35 20 0 14 -155 57 -237 66 -29 4 -53
2 -53 -2z"/>
<path d="M655 480 c-3 -6 1 -7 9 -4 18 7 21 14 7 14 -6 0 -13 -4 -16 -10z"/>
</g>
</svg>
